<?xml version="1.0" encoding="UTF-8"?>
<svg xmlns="http://www.w3.org/2000/svg">
	<style>
		.s1 {
			fill: none;
			stroke: #e37011;
			stroke-linecap: round;
			stroke-width: 3px;
		}
	</style>
	<g>
		<line class="s1" x1="32.310001" y1="55.470001" x2="32.310001" y2="27.370001" id="line4" />
		<path class="s1" d="m 32.31,27.37 a 12.13,12.13 0 0 1 0.72,-4" id="path6" />
		<path class="s1" d="M 33,23.37 A 11.79,11.79 0 0 1 38.34,17" id="path8" />
		<line class="s1" x1="38.34" y1="16.98" x2="62.360001" y2="3.0999999" id="line10" />
		<path class="s1" d="m 62.36,3.1 a 13.11,13.11 0 0 1 6,-1.6" id="path12" />
		<line class="s1" x1="68.330002" y1="1.5" x2="68.400002" y2="1.5" id="line14" />
		<path class="s1" d="m 68.4,1.5 a 13.07,13.07 0 0 1 5.95,1.6" id="path16" />
		<line class="s1" x1="74.349998" y1="3.0999999" x2="98.389999" y2="16.969999" id="line18" />
		<path class="s1" d="m 98.39,17 a 12.5,12.5 0 0 1 3.12,2.63" id="path20" />
		<path class="s1" d="m 101.51,19.6 a 11.66,11.66 0 0 1 2.92,7.76" id="path22" />
		<line class="s1" x1="104.43" y1="27.360001" x2="104.43" y2="55.130001" id="line24" />
		<path class="s1" d="M 104.43,55.13 A 12.16,12.16 0 0 1 98.34,65.61" id="path26" />
		<line class="s1" x1="98.339996" y1="65.610001" x2="74.43" y2="79.440002" id="line28" />
		<path class="s1" d="M 74.43,79.44 A 11.67,11.67 0 0 1 70.6,80.87" id="path30" />
		<path class="s1" d="M 70.6,80.87 A 11.79,11.79 0 0 1 62.31,79.45" id="path32" />
		<line class="s1" x1="62.310001" y1="79.449997" x2="38.330002" y2="65.599998" id="line34" />
		<path class="s1" d="M 38.33,65.6 A 13.11,13.11 0 0 1 35.23,63" id="path36" />
		<path class="s1" d="M 35.23,63 A 11.29,11.29 0 0 1 32.31,55.47" id="path38" />
		<line class="s1" x1="45.529999" y1="61.959999" x2="45.529999" y2="24.959999" id="line40" />
		<line class="s1" x1="45.529999" y1="24.959999" x2="45.529999" y2="24.85" id="line42" />
		<path class="s1" d="m 45.53,24.85 a 11.52,11.52 0 0 1 1.39,-4.72" id="path44" />
		<path class="s1" d="m 46.92,20.13 a 8.45,8.45 0 0 1 2.8,-3" id="path46" />
		<line class="s1" x1="49.720001" y1="17.110001" x2="49.759998" y2="17.09" id="line48" />
		<path class="s1" d="m 49.76,17.09 a 9.13,9.13 0 0 1 4.91,-1.32" id="path50" />
		<path class="s1" d="m 54.67,15.77 a 9.15,9.15 0 0 1 5,1.32" id="path52" />
		<line class="s1" x1="59.669998" y1="17.09" x2="59.73" y2="17.129999" id="line54" />
		<path class="s1" d="m 59.73,17.13 a 8.88,8.88 0 0 1 3.51,4.64" id="path56" />
		<path class="s1" d="m 63.24,21.77 a 11.41,11.41 0 0 1 0.66,3.16" id="path58" />
		<line class="s1" x1="63.900002" y1="24.93" x2="63.91" y2="25.040001" id="line60" />
		<line class="s1" x1="63.91" y1="25.040001" x2="63.91" y2="46.080002" id="line62" />
		<line class="s1" x1="63.91" y1="34.57" x2="55.07" y2="34.57" id="line64" />
		<path class="s1" d="M 55.09,34.57 A 6.88,6.88 0 0 0 51.51,36" id="path66" />
		<path class="s1" d="m 51.51,36 a 5.07,5.07 0 0 0 -1.39,1.69" id="path68" />
		<path class="s1" d="M 50.12,37.64 A 6.1,6.1 0 0 0 49.54,40.3" id="path70" />
		<line class="s1" x1="49.540001" y1="40.299999" x2="49.540001" y2="40.349998" id="line72" />
		<path class="s1" d="m 49.54,40.35 a 5.9,5.9 0 0 0 0.6,2.68" id="path74" />
		<path class="s1" d="m 50.14,43 a 5.24,5.24 0 0 0 2.28,2.26" id="path76" />
		<path class="s1" d="m 52.42,45.29 a 7,7 0 0 0 2.67,0.79" id="path78" />
		<line class="s1" x1="55.07" y1="46.080002" x2="63.91" y2="46.080002" id="line80" />
		<line class="s1" x1="63.91" y1="46.080002" x2="63.900002" y2="61.98" id="line82" />
		<line class="s1" x1="63.91" y1="46.080002" x2="73.949997" y2="46.080002" id="line84" />
		<line class="s1" x1="73.949997" y1="46.080002" x2="73.949997" y2="70.489998" id="line86" />
		<line class="s1" x1="85.300003" y1="46.09" x2="73.949997" y2="46.09" id="line88" />
		<line class="s1" x1="73.949997" y1="46.080002" x2="73.949997" y2="34.009998" id="line90" />
		<path class="s1" d="m 74,34 a 12.34,12.34 0 0 1 2,-6.69" id="path92" />
		<path class="s1" d="m 76,27.32 a 8.32,8.32 0 0 1 2.89,-2.64" id="path94" />
		<path class="s1" d="m 78.87,24.68 a 9.86,9.86 0 0 1 4.71,-1.1" id="path96" />
		<line class="s1" x1="83.580002" y1="23.58" x2="83.650002" y2="23.58" id="line98" />
		<path class="s1" d="m 83.65,23.58 a 9.44,9.44 0 0 1 4.6,1.1" id="path100" />
		<path class="s1" d="m 88.25,24.68 a 8.08,8.08 0 0 1 2.25,1.86" id="path102" />
		<path class="s1" d="m 90.5,26.54 a 10.79,10.79 0 0 1 2,3.77" id="path104" />
		<path class="s1" d="M 92.5,30.31 A 12.55,12.55 0 0 1 93.1,34" id="path106" />
	</g>
</svg>